<svg width="135" height="32" viewBox="0 0 135 32" fill="none" xmlns="http://www.w3.org/2000/svg">
<g id="logo-hcode">
<path id="cabecao-orelha-esquerda" fill-rule="evenodd" clip-rule="evenodd" d="M19.7955 10.6944C12.8491 10.6944 8.73717 13.0041 8.73717 19.6713C8.73717 22.4289 11.2778 25.295 13.8233 27.6781C16.2128 29.9178 18.6652 32 19.7969 32C20.9287 32 23.3804 29.9143 25.7699 27.6781C28.3154 25.2985 30.856 22.4289 30.856 19.6713C30.8553 13.0055 26.742 10.6944 19.7955 10.6944ZM15.1454 16.4833C15.1454 16.269 15.209 16.0595 15.328 15.8814C15.4471 15.7032 15.6163 15.5643 15.8143 15.4823C16.0122 15.4003 16.2301 15.3789 16.4402 15.4207C16.6504 15.4625 16.8435 15.5657 16.995 15.7172C17.1465 15.8687 17.2497 16.0617 17.2915 16.2719C17.3333 16.4821 17.3118 16.6999 17.2298 16.8979C17.1478 17.0959 17.009 17.2651 16.8308 17.3841C16.6526 17.5032 16.4432 17.5667 16.2289 17.5667C15.9416 17.5667 15.6662 17.4527 15.463 17.2496C15.2598 17.0466 15.1456 16.7712 15.1454 16.484V16.4833ZM19.7955 25.5945C18.0416 25.5945 16.6201 24.4432 16.6201 23.0224C16.6201 21.6016 18.0416 20.4503 19.7955 20.4503C21.5495 20.4503 22.971 21.6016 22.971 23.0224C22.971 24.4432 21.5488 25.5945 19.7955 25.5945ZM23.365 17.5667C23.1507 17.5667 22.9413 17.5032 22.7631 17.3841C22.5849 17.2651 22.4461 17.0959 22.3641 16.8979C22.2821 16.6999 22.2606 16.4821 22.3024 16.2719C22.3442 16.0617 22.4474 15.8687 22.5989 15.7172C22.7504 15.5657 22.9435 15.4625 23.1537 15.4207C23.3638 15.3789 23.5817 15.4003 23.7796 15.4823C23.9776 15.5643 24.1468 15.7032 24.2659 15.8814C24.3849 16.0595 24.4485 16.269 24.4485 16.4833C24.4485 16.6259 24.4203 16.767 24.3657 16.8987C24.311 17.0304 24.2309 17.15 24.1299 17.2506C24.0289 17.3513 23.9091 17.431 23.7772 17.4853C23.6454 17.5395 23.5041 17.5672 23.3615 17.5667H23.365ZM7.64743 17.249C5.42176 17.3113 4.60848 14.2639 5.53514 12.5051C6.46811 10.8386 7.53125 10.4901 8.25844 10.4901C8.75178 10.4351 9.25018 10.5312 9.68764 10.7658C10.1251 11.0004 10.481 11.3624 10.7081 11.8038C9.02528 13.157 7.92984 15.1077 7.65023 17.249" fill="#79756C"/>
<path id="cabelo" fill-rule="evenodd" clip-rule="evenodd" d="M19.7955 0C20.4324 0.00559918 20.8349 3.76545 21.1953 4.55983C21.3801 4.96717 21.7069 4.7488 21.9512 4.12799C22.5811 2.53433 23.8087 0.466831 24.1062 0.54592C24.4037 0.625008 24.1811 2.83738 24.0033 4.49614C23.9235 5.23663 24.1958 5.34161 24.6465 4.7481C24.7935 4.55493 25.6404 3.4302 25.9952 3.51628C26.0792 3.53658 26.1758 3.60657 26.1933 4.03911C26.2059 4.36176 26.5964 4.19448 27.1389 3.68496C27.9423 2.93047 28.7304 2.18298 28.9082 2.33976C29.0727 2.48463 28.6618 3.70036 28.2783 4.82159C28.0354 5.52639 28.1124 5.86514 28.4883 5.61527C28.6541 5.50609 29.2364 5.12535 29.4044 5.34371C29.4478 5.39901 29.5192 5.47949 29.3456 5.95472C29.2252 6.28578 29.6011 6.21089 30.2338 5.81474C31.0926 5.27932 31.9534 4.7523 32.085 4.87338C32.26 5.03436 31.6973 6.06321 31.0919 7.18304C30.737 7.83815 31.1465 7.88994 31.5678 7.62608C32.0162 7.36142 32.4928 7.14756 32.9886 6.98847C33.228 6.93108 34.1861 6.31937 33.4029 8.36797C33.263 8.72632 33.636 8.8292 33.9565 8.75291C34.6702 8.51926 35.4147 8.39352 36.1654 8.37987C36.2478 8.36901 36.3316 8.37852 36.4094 8.40756C36.4873 8.4366 36.5568 8.48429 36.612 8.54644C36.7365 8.74172 36.612 9.04827 35.3871 10.3053C35.2367 10.4593 35.2619 10.5971 35.7119 10.6923C38.3715 11.2522 38.2021 11.7352 38.1615 11.8696C38.1209 12.0039 37.6016 12.181 36.9234 12.5247C36.4503 12.764 36.5938 13.1686 37.2482 13.5234C38.9867 14.4683 38.8887 14.8364 38.8698 14.9169C38.8544 14.9827 38.8187 15.1129 38.4401 15.213C38.1454 15.29 38.3246 15.5923 38.8236 15.978C39.273 16.3279 39.6488 16.6296 39.5851 16.7919C39.5214 16.9543 39.0602 17.0145 38.4926 17.1097C37.8627 17.2112 37.687 17.5457 38.06 17.9293C38.627 18.5081 38.5437 18.6579 38.48 18.7313C38.4053 18.7883 38.3199 18.8296 38.2288 18.8526C38.1377 18.8755 38.0429 18.8798 37.9502 18.865C37.652 18.8545 37.7619 18.9728 37.8928 19.0631C38.1657 19.2521 39.5025 20.3089 39.457 20.5329C39.4374 20.6351 39.0448 20.5623 38.4919 20.4489C37.9523 20.3411 37.7024 20.2249 37.792 20.5546C37.8816 20.8842 37.4378 21.0879 37.0921 21.1341C36.8859 21.159 36.6782 21.1697 36.4706 21.1663C35.8162 21.1663 35.7007 21.7899 35.3409 22.3715C34.5573 23.5218 33.5492 24.5018 32.3772 25.2526C31.2053 26.0035 29.8937 26.5097 28.5211 26.741C30.3941 24.7239 32.1354 22.2448 32.1354 19.672C32.1354 19.2766 32.1214 18.8965 32.0948 18.5284C35.2584 18.464 36.514 14.4256 35.1877 11.9087L35.18 11.8948L35.1716 11.8808C34.3611 10.4334 33.0838 9.21135 31.3326 9.21065C30.6278 9.15426 29.9216 9.3012 29.2977 9.63403C28.6738 9.96686 28.1585 10.4716 27.8128 11.0885C25.6929 9.88675 22.922 9.41502 19.7962 9.41502C16.6705 9.41502 13.8996 9.88675 11.7796 11.0885C11.4339 10.4717 10.9185 9.96697 10.2947 9.63415C9.67085 9.30132 8.96465 9.15435 8.25983 9.21065C6.51008 9.21065 5.23137 10.4327 4.42089 11.8808L4.41319 11.8948L4.40549 11.9087C3.07919 14.4284 4.3355 18.4633 7.49834 18.5284C7.47104 18.909 7.4575 19.2904 7.45774 19.672C7.45774 22.2476 9.19909 24.726 11.072 26.741C9.6995 26.5097 8.38788 26.0035 7.21593 25.2526C6.04399 24.5018 5.0359 23.5218 4.25221 22.3715C3.88897 21.7899 3.77628 21.1663 3.12258 21.1663C2.91515 21.1697 2.70773 21.159 2.50177 21.1341C2.15882 21.0879 1.71719 20.8835 1.80187 20.5546C1.88656 20.2256 1.6395 20.3446 1.10198 20.4489C0.549059 20.5623 0.155717 20.6358 0.136819 20.5329C0.0885264 20.3089 1.42813 19.2521 1.70039 19.0631C1.83127 18.9728 1.94115 18.8531 1.643 18.865C1.55023 18.8797 1.45546 18.8754 1.3644 18.8524C1.27334 18.8295 1.18787 18.7883 1.11318 18.7313C1.04949 18.6614 0.966197 18.5088 1.53311 17.9293C1.90616 17.545 1.72699 17.2105 1.10058 17.1097C0.532961 17.0145 0.0724288 16.9543 0.00733837 16.7919C-0.0577521 16.6296 0.319492 16.3279 0.768826 15.978C1.26715 15.5923 1.44703 15.29 1.15237 15.213C0.773026 15.1129 0.737331 14.9827 0.722633 14.9169C0.703736 14.8364 0.60575 14.4683 2.3436 13.5234C2.9987 13.1686 3.14148 12.764 2.66835 12.5247C1.99085 12.181 1.47222 12.0074 1.43023 11.8696C1.38824 11.7317 1.22026 11.2557 3.87987 10.6923C4.3299 10.5971 4.3551 10.4593 4.20462 10.3053C2.977 9.04547 2.85522 8.74172 2.9798 8.54644C3.03494 8.48429 3.10448 8.4366 3.18233 8.40756C3.26018 8.37852 3.34396 8.36901 3.42634 8.37987C4.17686 8.39359 4.92113 8.51933 5.63451 8.75291C5.95506 8.8292 6.32531 8.72632 6.18813 8.36797C5.40494 6.31937 6.3638 6.93108 6.60247 6.98847C7.09828 7.14757 7.57482 7.36142 8.02326 7.62608C8.4432 7.89064 8.85474 7.83605 8.49989 7.18304C7.89448 6.06671 7.33176 5.03506 7.50674 4.87338C7.63762 4.7523 8.49849 5.27862 9.35726 5.81474C9.98717 6.20879 10.3658 6.28368 10.2454 5.95472C10.0719 5.48019 10.1432 5.39901 10.1866 5.34371C10.3539 5.12885 10.9369 5.50609 11.1028 5.61527C11.4808 5.86444 11.5577 5.52639 11.3128 4.82159C10.9264 3.70176 10.5149 2.48463 10.6829 2.33976C10.8606 2.18298 11.648 2.93117 12.4522 3.68496C12.9953 4.19448 13.3859 4.36176 13.3985 4.03911C13.4153 3.60657 13.5119 3.53728 13.5965 3.51628C13.9521 3.4302 14.799 4.55493 14.9452 4.7481C15.396 5.34161 15.6682 5.23803 15.5891 4.49614C15.4107 2.83738 15.1909 0.623608 15.4856 0.54592C15.7802 0.468231 17.0134 2.53433 17.6405 4.12799C17.8848 4.7488 18.2117 4.96787 18.3964 4.55983C18.7569 3.76545 19.1593 0.00559918 19.7962 0" fill="#FF760C"/>
<path id="nariz-orelha-direita" fill-rule="evenodd" clip-rule="evenodd" d="M31.943 17.249C34.1686 17.3113 34.9819 14.2639 34.0553 12.5051C33.1223 10.8386 32.0584 10.4901 31.3319 10.4901C30.8385 10.4344 30.3399 10.5304 29.9023 10.765C29.4648 10.9997 29.109 11.362 28.8823 11.8038C30.5653 13.1569 31.6608 15.1076 31.9402 17.249H31.943ZM19.7948 21.7731C18.7758 21.7731 17.9485 22.333 17.9485 23.0231C17.9485 23.7132 18.7758 24.2724 19.7948 24.2724C20.8139 24.2724 21.6426 23.7125 21.6426 23.0231C21.6426 22.3337 20.8153 21.7731 19.7948 21.7731ZM19.7948 22.5549C18.997 22.5549 18.4202 23.0637 18.4349 22.8922C18.4769 22.3988 19.2524 22.1118 19.7948 22.1118C20.3373 22.1118 21.1128 22.3988 21.1554 22.8922C21.1701 23.0637 20.5927 22.5549 19.7948 22.5549Z" fill="#79756C"/>
<path id="h" fill-rule="evenodd" clip-rule="evenodd" d="M59.0885 20.6204V28.7392H61.0482V20.227C61.0482 18.3835 60.1313 13.781 55.1046 13.7558C54.1972 13.7684 53.3024 13.9708 52.4779 14.35C51.6534 14.7292 50.9175 15.2769 50.3173 15.9576V5.74335H48.3576V28.7385H50.3173V20.8863C50.3173 16.5148 53.0043 15.523 54.9969 15.6007C57.837 15.7113 59.0885 18.1021 59.0885 20.6204Z" fill="#FF760C"/>
<path id="code" fill-rule="evenodd" clip-rule="evenodd" d="M71.9854 13.4079C73.0363 13.4065 74.0771 13.6128 75.048 14.0149C76.0188 14.4171 76.9006 15.0071 77.6427 15.7512L76.2597 17.1363C75.4149 16.2914 74.3385 15.7161 73.1667 15.483C71.9949 15.2499 70.7803 15.3695 69.6765 15.8268C68.5727 16.284 67.6292 17.0582 66.9655 18.0516C66.3017 19.045 65.9474 20.213 65.9474 21.4077C65.9474 22.6025 66.3017 23.7704 66.9655 24.7638C67.6292 25.7573 68.5727 26.5315 69.6765 26.9887C70.7803 27.4459 71.9949 27.5656 73.1667 27.3325C74.3385 27.0994 75.4149 26.524 76.2597 25.6792L77.6448 27.0643C76.7145 27.9944 75.5692 28.6808 74.3103 29.0626C73.0515 29.4443 71.7179 29.5098 70.4276 29.2531C69.1374 28.9964 67.9304 28.4255 66.9135 27.5909C65.8966 26.7564 65.1013 25.6839 64.5978 24.4686C64.0944 23.2532 63.8984 21.9325 64.0273 20.6233C64.1562 19.3141 64.6059 18.057 65.3367 16.9631C66.0674 15.8692 67.0567 14.9725 68.2168 14.3522C69.3769 13.732 70.6721 13.4074 71.9876 13.4072L71.9854 13.4079ZM88.5807 15.3669C89.7755 15.3669 90.9434 15.7212 91.9368 16.385C92.9302 17.0488 93.7045 17.9922 94.1617 19.096C94.6189 20.1998 94.7385 21.4144 94.5054 22.5862C94.2724 23.7581 93.697 24.8344 92.8522 25.6792C92.0074 26.5241 90.931 27.0994 89.7592 27.3325C88.5874 27.5656 87.3728 27.4459 86.269 26.9887C85.1652 26.5315 84.2217 25.7572 83.558 24.7638C82.8942 23.7704 82.5399 22.6025 82.5399 21.4077C82.5399 19.8056 83.1763 18.2691 84.3092 17.1362C85.4421 16.0034 86.9786 15.3669 88.5807 15.3669ZM88.5807 13.4072C90.1629 13.4072 91.7096 13.8764 93.0252 14.7554C94.3407 15.6345 95.3661 16.8839 95.9716 18.3456C96.5771 19.8074 96.7355 21.4159 96.4268 22.9677C96.1181 24.5195 95.3562 25.945 94.2374 27.0638C93.1186 28.1826 91.6932 28.9445 90.1414 29.2532C88.5896 29.5618 86.9811 29.4034 85.5193 28.7979C84.0575 28.1924 82.8081 27.1671 81.9291 25.8515C81.0501 24.5359 80.5809 22.9893 80.5809 21.407C80.5811 19.2855 81.424 17.2509 82.9242 15.7508C84.4245 14.2507 86.4591 13.4079 88.5807 13.4079V13.4072ZM113.559 21.3937H113.553V21.1306C113.48 19.5422 112.785 18.0466 111.616 16.968C110.448 15.8894 108.902 15.3149 107.313 15.3691C105.724 15.4233 104.22 16.1018 103.128 17.2575C102.036 18.4131 101.443 19.9527 101.479 21.5423C101.515 23.1319 102.176 24.6433 103.319 25.7487C104.462 26.854 105.995 27.4642 107.584 27.4469C109.174 27.4295 110.693 26.7861 111.812 25.656C112.93 24.526 113.558 23.0005 113.559 21.4105V21.3937ZM107.519 13.4079C108.663 13.4065 109.794 13.6512 110.835 14.1253C111.876 14.5994 112.803 15.2918 113.553 16.1557V5.74335H115.513V21.4063C115.513 22.9886 115.044 24.5352 114.165 25.8508C113.286 27.1664 112.036 28.1917 110.574 28.7972C109.113 29.4027 107.504 29.5611 105.952 29.2525C104.4 28.9438 102.975 28.1819 101.856 27.0631C100.737 25.9443 99.9755 24.5188 99.6668 22.967C99.3581 21.4152 99.5166 19.8067 100.122 18.3449C100.728 16.8832 101.753 15.6338 103.068 14.7547C104.384 13.8757 105.931 13.4065 107.513 13.4065L107.519 13.4079ZM131.962 18.9182C131.371 17.613 130.337 16.56 129.042 15.9471C127.747 15.3341 126.277 15.2012 124.893 15.5719C123.51 15.9426 122.303 16.793 121.488 17.9711C120.673 19.1493 120.303 20.5786 120.445 22.0041L131.962 18.9182ZM124.39 13.6802C125.484 13.3872 126.629 13.3301 127.747 13.5125C128.865 13.695 129.932 14.1129 130.877 14.7385C131.822 15.3642 132.623 16.1834 133.227 17.1418C133.832 18.1003 134.226 19.1762 134.383 20.2984L120.956 23.8959C121.414 24.9082 122.142 25.7747 123.061 26.4C123.979 27.0253 125.052 27.3852 126.162 27.4401C127.272 27.495 128.375 27.2428 129.351 26.7112C130.326 26.1797 131.137 25.3893 131.692 24.4271L133.389 25.407C132.731 26.5463 131.803 27.5058 130.685 28.2006C129.568 28.8953 128.297 29.3038 126.984 29.3899C125.671 29.476 124.358 29.2371 123.159 28.6942C121.961 28.1513 120.915 27.3212 120.114 26.2776C119.313 25.2339 118.782 24.0088 118.568 22.7109C118.353 21.4129 118.462 20.0821 118.885 18.8363C119.308 17.5905 120.031 16.4682 120.992 15.5689C121.952 14.6695 123.119 14.0208 124.39 13.6802Z" fill="#79756C"/>
</g>
</svg>
